<svg width="495" height="399" viewBox="0 0 495 399" fill="none" xmlns="http://www.w3.org/2000/svg">
<path d="M319.516 133V101H324.188V112.891H324.469C324.74 112.391 325.13 111.812 325.641 111.156C326.151 110.5 326.859 109.927 327.766 109.437C328.672 108.938 329.87 108.688 331.359 108.688C333.297 108.688 335.026 109.177 336.547 110.156C338.068 111.135 339.26 112.547 340.125 114.391C341 116.234 341.438 118.453 341.438 121.047C341.438 123.641 341.005 125.865 340.141 127.719C339.276 129.562 338.089 130.984 336.578 131.984C335.068 132.974 333.344 133.469 331.406 133.469C329.948 133.469 328.755 133.224 327.828 132.734C326.911 132.245 326.193 131.672 325.672 131.016C325.151 130.359 324.75 129.776 324.469 129.266H324.078V133H319.516ZM324.094 121C324.094 122.687 324.339 124.167 324.828 125.438C325.318 126.708 326.026 127.703 326.953 128.422C327.88 129.13 329.016 129.484 330.359 129.484C331.755 129.484 332.922 129.115 333.859 128.375C334.797 127.625 335.505 126.609 335.984 125.328C336.474 124.047 336.719 122.604 336.719 121C336.719 119.417 336.479 117.995 336 116.734C335.531 115.474 334.823 114.479 333.875 113.75C332.938 113.021 331.766 112.656 330.359 112.656C329.005 112.656 327.859 113.005 326.922 113.703C325.995 114.401 325.292 115.375 324.813 116.625C324.333 117.875 324.094 119.333 324.094 121ZM346.62 142C345.922 142 345.287 141.943 344.714 141.828C344.141 141.724 343.714 141.609 343.433 141.484L344.558 137.656C345.412 137.885 346.172 137.984 346.839 137.953C347.506 137.922 348.094 137.672 348.605 137.203C349.126 136.734 349.584 135.969 349.98 134.906L350.558 133.313L341.777 109H346.777L352.855 127.625H353.105L359.183 109H364.198L354.308 136.203C353.849 137.453 353.266 138.51 352.558 139.375C351.849 140.25 351.006 140.906 350.027 141.344C349.047 141.781 347.912 142 346.62 142Z" fill="#1DBACF"/>
<path d="M15.8 42H22.2C46.0667 42 64.4667 48.5333 77.4 61.6C90.4667 74.5333 97 93 97 117C97 130.733 93.6667 143.333 87 154.8C80.3333 166.267 71.2667 175.333 59.8 182C48.4667 188.667 35.9333 192 22.2 192H15.8V42ZM23.8 185.8C36.0667 185.8 47.2667 182.8 57.4 176.8C67.5333 170.667 75.5333 162.333 81.4 151.8C87.4 141.267 90.4 129.667 90.4 117C90.4 94.8667 84.6 77.8667 73 66C61.5333 54 45.1333 48 23.8 48H22.2V185.8H23.8ZM100.198 42H153.998V47.8H106.798V129.4H146.198V135.2H106.798V186.2H153.998V192H100.198V42ZM221.403 196C207.403 196 194.536 192.6 182.803 185.8C171.07 178.867 161.736 169.4 154.803 157.4C148.003 145.267 144.603 131.667 144.603 116.6C144.603 102.067 148.136 88.8 155.203 76.8C162.403 64.8 171.936 55.3333 183.803 48.4C195.803 41.4667 208.536 38 222.003 38C231.336 38 238.736 38.8667 244.203 40.6C249.67 42.2 256.003 45.0667 263.203 49.2V56.6C256.403 51.9333 250.07 48.6667 244.203 46.8C238.47 44.8 231.27 43.8 222.603 43.8C209.403 43.8 197.336 47.2 186.403 54C175.603 60.6667 167.003 69.6667 160.603 81C154.336 92.2 151.203 104.267 151.203 117.2C151.203 130.267 154.403 142.4 160.803 153.6C167.203 164.8 175.67 173.733 186.203 180.4C196.87 186.933 208.336 190.2 220.603 190.2C229.403 190.2 237.07 189.2 243.603 187.2C250.136 185.067 256.67 181.8 263.203 177.4V184.8C256.803 188.667 250.203 191.467 243.403 193.2C236.736 195.067 229.403 196 221.403 196ZM339.228 196C325.228 196 312.228 192.333 300.228 185C288.228 177.667 278.695 167.933 271.628 155.8C264.695 143.533 261.228 130.4 261.228 116.4C261.228 102.533 264.761 89.6 271.828 77.6C278.895 65.4667 288.428 55.8667 300.428 48.8C312.428 41.6 325.428 38 339.428 38C353.561 38 366.561 41.5333 378.428 48.6C390.295 55.6667 399.695 65.2667 406.628 77.4C413.695 89.4 417.228 102.4 417.228 116.4C417.228 130.8 413.695 144.133 406.628 156.4C399.695 168.533 390.228 178.2 378.228 185.4C366.361 192.467 353.361 196 339.228 196ZM339.228 190.2C352.028 190.2 363.895 186.933 374.828 180.4C385.761 173.733 394.428 164.8 400.828 153.6C407.361 142.267 410.628 130 410.628 116.8C410.628 103.733 407.428 91.6 401.028 80.4C394.628 69.2 385.961 60.3333 375.028 53.8C364.095 47.1333 352.228 43.8 339.428 43.8C326.495 43.8 314.561 47.1333 303.628 53.8C292.695 60.3333 283.961 69.2 277.428 80.4C271.028 91.6 267.828 103.733 267.828 116.8C267.828 130 271.028 142.267 277.428 153.6C283.961 164.8 292.695 173.733 303.628 180.4C314.561 186.933 326.428 190.2 339.228 190.2ZM420.386 42H428.986C444.586 42 456.586 46.1333 464.986 54.4C473.519 62.6667 477.786 74.4667 477.786 89.8C477.786 98.6 475.653 106.667 471.386 114C467.253 121.333 461.586 127.133 454.386 131.4C447.186 135.533 439.253 137.6 430.586 137.6H429.186L480.786 192H472.186L426.786 144.4V192H420.386V42ZM430.386 131.8C437.986 131.8 444.919 129.933 451.186 126.2C457.453 122.467 462.386 117.467 465.986 111.2C469.586 104.8 471.386 97.7333 471.386 90C471.386 76.5333 467.719 66.1333 460.386 58.8C453.186 51.4667 442.853 47.8 429.386 47.8H426.786V131.8H430.386Z" fill="#F7F7F7"/>
<path d="M15.8 42V40.5H14.3V42H15.8ZM77.4 61.6L76.3339 62.6552L76.3393 62.6607L76.3448 62.6661L77.4 61.6ZM87 154.8L88.2968 155.554L87 154.8ZM59.8 182L59.0461 180.703L59.0395 180.707L59.8 182ZM15.8 192H14.3V193.5H15.8V192ZM57.4 176.8L58.1642 178.091L58.1705 178.087L58.1767 178.083L57.4 176.8ZM81.4 151.8L80.0966 151.058L80.0931 151.064L80.0895 151.07L81.4 151.8ZM73 66L71.9155 67.0363L71.9214 67.0424L71.9274 67.0485L73 66ZM22.2 48V46.5H20.7V48H22.2ZM22.2 185.8H20.7V187.3H22.2V185.8ZM15.8 43.5H22.2V40.5H15.8V43.5ZM22.2 43.5C45.7909 43.5 63.7594 49.951 76.3339 62.6552L78.4661 60.5448C65.174 47.1156 46.3424 40.5 22.2 40.5V43.5ZM76.3448 62.6661C89.0474 75.2391 95.5 93.273 95.5 117H98.5C98.5 92.727 91.8859 73.8275 78.4552 60.5339L76.3448 62.6661ZM95.5 117C95.5 130.478 92.232 142.817 85.7032 154.046L88.2968 155.554C95.1014 143.85 98.5 130.988 98.5 117H95.5ZM85.7032 154.046C79.1674 165.288 70.2878 174.167 59.0461 180.703L60.5539 183.297C72.2456 176.499 81.4993 167.246 88.2968 155.554L85.7032 154.046ZM59.0395 180.707C47.9471 187.232 35.6783 190.5 22.2 190.5V193.5C36.1884 193.5 48.9862 190.101 60.5605 183.293L59.0395 180.707ZM22.2 190.5H15.8V193.5H22.2V190.5ZM17.3 192V42H14.3V192H17.3ZM23.8 187.3C36.3239 187.3 47.7897 184.234 58.1642 178.091L56.6358 175.509C46.7437 181.366 35.8095 184.3 23.8 184.3V187.3ZM58.1767 178.083C68.5372 171.812 76.7193 163.287 82.7105 152.53L80.0895 151.07C74.3473 161.38 66.5295 169.521 56.6233 175.517L58.1767 178.083ZM82.7034 152.542C88.8381 141.773 91.9 129.915 91.9 117H88.9C88.9 129.418 85.9619 140.761 80.0966 151.058L82.7034 152.542ZM91.9 117C91.9 94.6094 86.0282 77.1818 74.0726 64.9514L71.9274 67.0485C83.1718 78.5515 88.9 95.1239 88.9 117H91.9ZM74.0845 64.9637C62.2597 52.5889 45.4198 46.5 23.8 46.5V49.5C44.8469 49.5 60.807 55.4111 71.9155 67.0363L74.0845 64.9637ZM23.8 46.5H22.2V49.5H23.8V46.5ZM20.7 48V185.8H23.7V48H20.7ZM22.2 187.3H23.8V184.3H22.2V187.3ZM100.198 42V40.5H98.6984V42H100.198ZM153.998 42H155.498V40.5H153.998V42ZM153.998 47.8V49.3H155.498V47.8H153.998ZM106.798 47.8V46.3H105.298V47.8H106.798ZM106.798 129.4H105.298V130.9H106.798V129.4ZM146.198 129.4H147.698V127.9H146.198V129.4ZM146.198 135.2V136.7H147.698V135.2H146.198ZM106.798 135.2V133.7H105.298V135.2H106.798ZM106.798 186.2H105.298V187.7H106.798V186.2ZM153.998 186.2H155.498V184.7H153.998V186.2ZM153.998 192V193.5H155.498V192H153.998ZM100.198 192H98.6984V193.5H100.198V192ZM100.198 43.5H153.998V40.5H100.198V43.5ZM152.498 42V47.8H155.498V42H152.498ZM153.998 46.3H106.798V49.3H153.998V46.3ZM105.298 47.8V129.4H108.298V47.8H105.298ZM106.798 130.9H146.198V127.9H106.798V130.9ZM144.698 129.4V135.2H147.698V129.4H144.698ZM146.198 133.7H106.798V136.7H146.198V133.7ZM105.298 135.2V186.2H108.298V135.2H105.298ZM106.798 187.7H153.998V184.7H106.798V187.7ZM152.498 186.2V192H155.498V186.2H152.498ZM153.998 190.5H100.198V193.5H153.998V190.5ZM101.698 192V42H98.6984V192H101.698ZM182.803 185.8L182.04 187.091L182.051 187.098L182.803 185.8ZM154.803 157.4L153.495 158.133L153.499 158.142L153.504 158.15L154.803 157.4ZM155.203 76.8L153.917 76.0282L153.911 76.0388L155.203 76.8ZM183.803 48.4L183.053 47.1012L183.046 47.1049L183.803 48.4ZM244.203 40.6L243.75 42.0298L243.766 42.0349L243.782 42.0396L244.203 40.6ZM263.203 49.2H264.703V48.3315L263.95 47.8991L263.203 49.2ZM263.203 56.6L262.354 57.8368L264.703 59.4487V56.6H263.203ZM244.203 46.8L243.709 48.2163L243.729 48.2231L243.748 48.2294L244.203 46.8ZM186.403 54L187.191 55.2764L187.195 55.2737L186.403 54ZM160.603 81L159.297 80.2624L159.294 80.2676L160.603 81ZM160.803 153.6L159.501 154.344L160.803 153.6ZM186.203 180.4L185.401 181.667L185.41 181.673L185.42 181.679L186.203 180.4ZM243.603 187.2L244.042 188.634L244.056 188.63L244.069 188.626L243.603 187.2ZM263.203 177.4H264.703V174.581L262.365 176.156L263.203 177.4ZM263.203 184.8L263.979 186.084L264.703 185.646V184.8H263.203ZM243.403 193.2L243.033 191.746L243.016 191.751L242.999 191.756L243.403 193.2ZM221.403 194.5C207.658 194.5 195.052 191.165 183.555 184.502L182.051 187.098C194.02 194.035 207.148 197.5 221.403 197.5V194.5ZM183.566 184.509C172.059 177.709 162.908 168.43 156.102 156.65L153.504 158.15C160.564 170.37 170.081 180.025 182.04 187.091L183.566 184.509ZM156.112 156.667C149.448 144.776 146.103 131.432 146.103 116.6H143.103C143.103 131.901 146.559 145.758 153.495 158.133L156.112 156.667ZM146.103 116.6C146.103 102.322 149.571 89.3202 156.496 77.5611L153.911 76.0388C146.702 88.2798 143.103 101.811 143.103 116.6H146.103ZM156.489 77.5717C163.562 65.7838 172.915 56.4989 184.56 49.6951L183.046 47.1049C170.958 54.1678 161.244 63.8162 153.917 76.0283L156.489 77.5717ZM184.554 49.6988C196.332 42.8932 208.808 39.5 222.003 39.5V36.5C208.265 36.5 195.274 40.0401 183.053 47.1012L184.554 49.6988ZM222.003 39.5C231.266 39.5 238.492 40.3629 243.75 42.0298L244.656 39.1701C238.98 37.3704 231.407 36.5 222.003 36.5V39.5ZM243.782 42.0396C249.096 43.595 255.317 46.4022 262.456 50.5009L263.95 47.8991C256.69 43.7311 250.243 40.805 244.624 39.1604L243.782 42.0396ZM261.703 49.2V56.6H264.703V49.2H261.703ZM264.052 55.3632C257.169 50.6397 250.703 47.294 244.658 45.3706L243.748 48.2294C249.437 50.0393 255.637 53.2269 262.354 57.8368L264.052 55.3632ZM244.697 45.3837C238.753 43.3101 231.372 42.3 222.603 42.3V45.3C231.167 45.3 238.187 46.2899 243.709 48.2163L244.697 45.3837ZM222.603 42.3C209.131 42.3 196.788 45.7745 185.611 52.7262L187.195 55.2737C197.885 48.6255 209.676 45.3 222.603 45.3V42.3ZM185.615 52.7236C174.594 59.5267 165.818 68.7145 159.297 80.2624L161.909 81.7376C168.188 70.6188 176.612 61.8066 187.191 55.2764L185.615 52.7236ZM159.294 80.2676C152.901 91.6932 149.703 104.012 149.703 117.2H152.703C152.703 104.521 155.772 92.7068 161.912 81.7324L159.294 80.2676ZM149.703 117.2C149.703 130.524 152.969 142.915 159.501 154.344L162.105 152.856C155.837 141.885 152.703 130.009 152.703 117.2H149.703ZM159.501 154.344C166.018 165.749 174.653 174.865 185.401 181.667L187.005 179.133C176.686 172.601 168.388 163.851 162.105 152.856L159.501 154.344ZM185.42 181.679C196.317 188.354 208.054 191.7 220.603 191.7V188.7C208.619 188.7 197.422 185.513 186.987 179.121L185.42 181.679ZM220.603 191.7C229.511 191.7 237.332 190.688 244.042 188.634L243.164 185.766C236.807 187.712 229.295 188.7 220.603 188.7V191.7ZM244.069 188.626C250.752 186.444 257.409 183.111 264.041 178.644L262.365 176.156C255.931 180.489 249.521 183.69 243.138 185.774L244.069 188.626ZM261.703 177.4V184.8H264.703V177.4H261.703ZM262.427 183.516C256.145 187.312 249.681 190.052 243.033 191.746L243.774 194.654C250.725 192.882 257.461 190.022 263.979 186.084L262.427 183.516ZM242.999 191.756C236.482 193.58 229.287 194.5 221.403 194.5V197.5C229.519 197.5 236.991 196.553 243.808 194.644L242.999 191.756ZM300.228 185L299.446 186.28L300.228 185ZM271.628 155.8L270.322 156.538L270.327 156.547L270.332 156.555L271.628 155.8ZM271.828 77.6L273.121 78.3612L273.124 78.3549L271.828 77.6ZM300.428 48.8L301.189 50.0926L301.2 50.0862L300.428 48.8ZM378.428 48.6L377.661 49.8888L378.428 48.6ZM406.628 77.4L405.326 78.1442L405.331 78.1527L405.336 78.1612L406.628 77.4ZM406.628 156.4L405.328 155.651L405.326 155.656L406.628 156.4ZM378.228 185.4L378.996 186.689L379 186.686L378.228 185.4ZM374.828 180.4L375.598 181.688L375.609 181.681L374.828 180.4ZM400.828 153.6L399.529 152.851L399.526 152.856L400.828 153.6ZM401.028 80.4L402.331 79.6558L401.028 80.4ZM375.028 53.8L374.247 55.0807L374.259 55.0876L375.028 53.8ZM303.628 53.8L304.398 55.0877L304.409 55.0807L303.628 53.8ZM277.428 80.4L276.132 79.6442L276.126 79.6558L277.428 80.4ZM277.428 153.6L276.122 154.338L276.127 154.347L276.132 154.356L277.428 153.6ZM303.628 180.4L302.847 181.681L302.859 181.688L303.628 180.4ZM339.228 194.5C325.505 194.5 312.776 190.91 301.01 183.72L299.446 186.28C311.68 193.756 324.951 197.5 339.228 197.5V194.5ZM301.01 183.72C289.222 176.516 279.866 166.963 272.924 155.045L270.332 156.555C277.524 168.904 287.234 178.817 299.446 186.28L301.01 183.72ZM272.934 155.062C266.127 143.019 262.728 130.14 262.728 116.4H259.728C259.728 130.66 263.263 144.048 270.322 156.538L272.934 155.062ZM262.728 116.4C262.728 102.802 266.189 90.1315 273.121 78.3612L270.536 76.8388C263.334 89.0685 259.728 102.264 259.728 116.4H262.728ZM273.124 78.3549C280.063 66.4417 289.413 57.0277 301.189 50.0925L299.667 47.5075C287.444 54.7057 277.727 64.4916 270.532 76.8451L273.124 78.3549ZM301.2 50.0862C312.967 43.0262 325.7 39.5 339.428 39.5V36.5C325.156 36.5 311.89 40.1738 299.656 47.5138L301.2 50.0862ZM339.428 39.5C353.298 39.5 366.032 42.9637 377.661 49.8888L379.196 47.3112C367.091 40.103 353.825 36.5 339.428 36.5V39.5ZM377.661 49.8888C389.302 56.8215 398.519 66.2327 405.326 78.1442L407.931 76.6558C400.87 64.3006 391.287 54.5119 379.196 47.3112L377.661 49.8888ZM405.336 78.1612C412.266 89.9292 415.728 102.666 415.728 116.4H418.728C418.728 102.134 415.124 88.8708 407.921 76.6388L405.336 78.1612ZM415.728 116.4C415.728 130.542 412.262 143.616 405.328 155.651L407.928 157.149C415.128 144.65 418.728 131.058 418.728 116.4H415.728ZM405.326 155.656C398.52 167.566 389.236 177.046 377.456 184.114L379 186.686C391.22 179.354 400.869 169.501 407.931 157.144L405.326 155.656ZM377.461 184.111C365.832 191.036 353.098 194.5 339.228 194.5V197.5C353.625 197.5 366.891 193.897 378.996 186.689L377.461 184.111ZM339.228 191.7C352.298 191.7 364.43 188.361 375.598 181.688L374.059 179.112C363.359 185.506 351.759 188.7 339.228 188.7V191.7ZM375.609 181.681C386.76 174.881 395.606 165.763 402.13 154.344L399.526 152.856C393.251 163.837 384.763 172.586 374.047 179.119L375.609 181.681ZM402.128 154.349C408.794 142.786 412.128 130.26 412.128 116.8H409.128C409.128 129.74 405.929 141.747 399.529 152.851L402.128 154.349ZM412.128 116.8C412.128 103.476 408.862 91.0855 402.331 79.6558L399.726 81.1442C405.995 92.1145 409.128 103.991 409.128 116.8H412.128ZM402.331 79.6558C395.804 68.2348 386.955 59.1798 375.798 52.5124L374.259 55.0876C384.968 61.4869 393.452 70.1651 399.726 81.1442L402.331 79.6558ZM375.809 52.5193C364.641 45.7093 352.504 42.3 339.428 42.3V45.3C351.953 45.3 363.549 48.5574 374.247 55.0807L375.809 52.5193ZM339.428 42.3C326.222 42.3 314.018 45.7077 302.847 52.5193L304.409 55.0807C315.105 48.559 326.767 45.3 339.428 45.3V42.3ZM302.859 52.5124C291.704 59.1781 282.791 68.2294 276.132 79.6442L278.724 81.1558C285.132 70.1706 293.686 61.4885 304.398 55.0876L302.859 52.5124ZM276.126 79.6558C269.595 91.0855 266.328 103.476 266.328 116.8H269.328C269.328 103.991 272.462 92.1145 278.73 81.1442L276.126 79.6558ZM266.328 116.8C266.328 130.255 269.593 142.776 276.122 154.338L278.734 152.862C272.463 141.757 269.328 129.745 269.328 116.8H266.328ZM276.132 154.356C282.79 165.768 291.699 174.883 302.847 181.681L304.409 179.119C293.691 172.584 285.133 163.832 278.724 152.844L276.132 154.356ZM302.859 181.688C314.026 188.361 326.159 191.7 339.228 191.7V188.7C326.698 188.7 315.097 185.506 304.398 179.112L302.859 181.688ZM420.386 42V40.5H418.886V42H420.386ZM464.986 54.4L463.934 55.4691L463.942 55.4774L464.986 54.4ZM471.386 114L470.089 113.246L470.084 113.255L470.079 113.263L471.386 114ZM454.386 131.4L455.133 132.701L455.142 132.696L455.151 132.69L454.386 131.4ZM429.186 137.6V136.1H425.696L428.098 138.632L429.186 137.6ZM480.786 192V193.5H484.276L481.874 190.968L480.786 192ZM472.186 192L471.1 193.035L471.544 193.5H472.186V192ZM426.786 144.4L427.871 143.365L425.286 140.654V144.4H426.786ZM426.786 192V193.5H428.286V192H426.786ZM420.386 192H418.886V193.5H420.386V192ZM451.186 126.2L451.954 127.489L451.186 126.2ZM465.986 111.2L467.287 111.947L467.293 111.935L465.986 111.2ZM460.386 58.8L459.316 59.8509L459.325 59.8607L460.386 58.8ZM426.786 47.8V46.3H425.286V47.8H426.786ZM426.786 131.8H425.286V133.3H426.786V131.8ZM420.386 43.5H428.986V40.5H420.386V43.5ZM428.986 43.5C444.324 43.5 455.896 47.5589 463.934 55.4691L466.038 53.3309C457.276 44.7078 444.848 40.5 428.986 40.5V43.5ZM463.942 55.4774C472.106 63.3855 476.286 74.7488 476.286 89.8H479.286C479.286 74.1845 474.933 61.9478 466.03 53.3226L463.942 55.4774ZM476.286 89.8C476.286 98.3453 474.218 106.15 470.089 113.246L472.682 114.754C477.087 107.183 479.286 98.8547 479.286 89.8H476.286ZM470.079 113.263C466.074 120.369 460.594 125.978 453.621 130.11L455.151 132.69C462.578 128.289 468.431 122.297 472.693 114.737L470.079 113.263ZM453.639 130.099C446.677 134.096 439.003 136.1 430.586 136.1V139.1C439.503 139.1 447.695 136.971 455.133 132.701L453.639 130.099ZM430.586 136.1H429.186V139.1H430.586V136.1ZM428.098 138.632L479.698 193.032L481.874 190.968L430.274 136.568L428.098 138.632ZM480.786 190.5H472.186V193.5H480.786V190.5ZM473.271 190.965L427.871 143.365L425.701 145.435L471.1 193.035L473.271 190.965ZM425.286 144.4V192H428.286V144.4H425.286ZM426.786 190.5H420.386V193.5H426.786V190.5ZM421.886 192V42H418.886V192H421.886ZM430.386 133.3C438.244 133.3 445.445 131.366 451.954 127.489L450.418 124.911C444.394 128.5 437.728 130.3 430.386 130.3V133.3ZM451.954 127.489C458.439 123.625 463.557 118.439 467.287 111.947L464.685 110.453C461.215 116.494 456.466 121.308 450.418 124.911L451.954 127.489ZM467.293 111.935C471.026 105.299 472.886 97.9767 472.886 90H469.886C469.886 97.4899 468.146 104.301 464.679 110.465L467.293 111.935ZM472.886 90C472.886 76.2593 469.138 65.4309 461.447 57.7393L459.325 59.8607C466.3 66.8358 469.886 76.8073 469.886 90H472.886ZM461.456 57.7491C453.894 50.0472 443.125 46.3 429.386 46.3V49.3C442.58 49.3 452.477 52.8861 459.316 59.8509L461.456 57.7491ZM429.386 46.3H426.786V49.3H429.386V46.3ZM425.286 47.8V131.8H428.286V47.8H425.286ZM426.786 133.3H430.386V130.3H426.786V133.3Z" fill="white"/>
<path d="M169.6 207V357H163V216.6L92.2 359.8L21.8 214.8V357H15.2V207H24.6L92.2 346.2L160.4 207H169.6ZM226.152 361C217.485 361 209.752 359.2 202.952 355.6C196.152 351.867 190.818 346.6 186.952 339.8C183.085 333 181.152 325.067 181.152 316V207H187.752V315.8C187.752 323.8 189.418 330.8 192.752 336.8C196.085 342.667 200.618 347.2 206.352 350.4C212.218 353.6 218.752 355.2 225.952 355.2C233.152 355.2 239.618 353.667 245.352 350.6C251.218 347.4 255.752 342.867 258.952 337C262.285 331 263.952 323.933 263.952 315.8V207H270.552V315.6C270.552 324.8 268.685 332.867 264.952 339.8C261.218 346.6 255.952 351.867 249.152 355.6C242.485 359.2 234.818 361 226.152 361ZM313.645 359.8C296.979 359.8 284.045 352.933 274.845 339.2V328.4C278.445 336.4 283.645 342.667 290.445 347.2C297.379 351.733 305.645 354 315.245 354C321.912 354 328.045 352.533 333.645 349.6C339.379 346.667 343.912 342.533 347.245 337.2C350.579 331.867 352.245 325.733 352.245 318.8C352.245 312.533 351.179 307.133 349.045 302.6C346.912 298.067 343.379 293.733 338.445 289.6C333.512 285.333 326.379 280.333 317.045 274.6L310.645 270.6C304.779 267 300.045 263.8 296.445 261C292.845 258.2 289.712 254.933 287.045 251.2C283.579 246 281.845 240 281.845 233.2C281.845 224.133 284.779 217.067 290.645 212C296.512 206.933 303.979 204.4 313.045 204.4C325.312 204.4 335.045 208.933 342.245 218V228.2C339.179 222.6 334.979 218.2 329.645 215C324.312 211.8 318.445 210.2 312.045 210.2C305.379 210.2 299.779 212.267 295.245 216.4C290.712 220.533 288.445 226.067 288.445 233C288.445 239.8 290.512 245.667 294.645 250.6C298.912 255.4 306.045 260.667 316.045 266.4C328.312 273.6 337.845 280.133 344.645 286C349.445 290.4 352.912 295.267 355.045 300.6C357.312 305.933 358.445 311.867 358.445 318.4C358.445 326.667 356.512 333.933 352.645 340.2C348.779 346.467 343.445 351.333 336.645 354.8C329.845 358.133 322.179 359.8 313.645 359.8ZM362.636 207H369.236V294H472.036V207H478.636V357H472.036V299.8H369.236V357H362.636V207Z" fill="#F7F7F7"/>
<path d="M169.6 207H171.1V205.5H169.6V207ZM169.6 357V358.5H171.1V357H169.6ZM163 357H161.5V358.5H163V357ZM163 216.6H164.5L161.655 215.935L163 216.6ZM92.2 359.8L90.8506 360.455L92.1878 363.209L93.5446 360.465L92.2 359.8ZM21.8 214.8L23.1494 214.145L20.3 214.8H21.8ZM21.8 357V358.5H23.3V357H21.8ZM15.2 357H13.7V358.5H15.2V357ZM15.2 207V205.5H13.7V207H15.2ZM24.6 207L25.9493 206.345L25.5391 205.5H24.6V207ZM92.2 346.2L90.8507 346.855L92.194 349.621L93.547 346.86L92.2 346.2ZM160.4 207V205.5H159.465L159.053 206.34L160.4 207ZM168.1 207V357H171.1V207H168.1ZM169.6 355.5H163V358.5H169.6V355.5ZM164.5 357V216.6H161.5V357H164.5ZM161.655 215.935L90.8554 359.135L93.5446 360.465L164.345 217.265L161.655 215.935ZM93.5494 359.145L23.1494 214.145L20.4506 215.455L90.8506 360.455L93.5494 359.145ZM20.3 214.8V357H23.3V214.8H20.3ZM21.8 355.5H15.2V358.5H21.8V355.5ZM16.7 357V207H13.7V357H16.7ZM15.2 208.5H24.6V205.5H15.2V208.5ZM23.2507 207.655L90.8507 346.855L93.5493 345.545L25.9493 206.345L23.2507 207.655ZM93.547 346.86L161.747 207.66L159.053 206.34L90.853 345.54L93.547 346.86ZM160.4 208.5H169.6V205.5H160.4V208.5ZM202.952 355.6L202.23 356.915L202.24 356.92L202.25 356.926L202.952 355.6ZM186.952 339.8L185.648 340.541L186.952 339.8ZM181.152 207V205.5H179.652V207H181.152ZM187.752 207H189.252V205.5H187.752V207ZM192.752 336.8L191.44 337.528L191.444 337.535L191.447 337.541L192.752 336.8ZM206.352 350.4L205.621 351.71L205.627 351.713L205.633 351.717L206.352 350.4ZM245.352 350.6L246.059 351.923L246.07 351.917L245.352 350.6ZM258.952 337L257.64 336.272L257.635 336.282L258.952 337ZM263.952 207V205.5H262.452V207H263.952ZM270.552 207H272.052V205.5H270.552V207ZM264.952 339.8L266.266 340.522L266.272 340.511L264.952 339.8ZM249.152 355.6L249.864 356.92L249.873 356.915L249.152 355.6ZM226.152 359.5C217.698 359.5 210.211 357.746 203.653 354.274L202.25 356.926C209.292 360.654 217.272 362.5 226.152 362.5V359.5ZM203.673 354.285C197.119 350.687 191.986 345.619 188.255 339.059L185.648 340.541C189.65 347.581 195.184 353.047 202.23 356.915L203.673 354.285ZM188.255 339.059C184.537 332.518 182.652 324.848 182.652 316H179.652C179.652 325.285 181.633 333.482 185.648 340.541L188.255 339.059ZM182.652 316V207H179.652V316H182.652ZM181.152 208.5H187.752V205.5H181.152V208.5ZM186.252 207V315.8H189.252V207H186.252ZM186.252 315.8C186.252 324.012 187.964 331.271 191.44 337.528L194.063 336.072C190.872 330.329 189.252 323.588 189.252 315.8H186.252ZM191.447 337.541C194.912 343.639 199.641 348.372 205.621 351.71L207.083 349.09C201.596 346.028 197.258 341.694 194.056 336.059L191.447 337.541ZM205.633 351.717C211.737 355.046 218.521 356.7 225.952 356.7V353.7C218.983 353.7 212.699 352.154 207.07 349.083L205.633 351.717ZM225.952 356.7C233.371 356.7 240.085 355.118 246.059 351.923L244.644 349.277C239.151 352.215 232.932 353.7 225.952 353.7V356.7ZM246.07 351.917C252.189 348.579 256.93 343.838 260.268 337.718L257.635 336.282C254.573 341.896 250.247 346.221 244.633 349.283L246.07 351.917ZM260.263 337.728C263.741 331.468 265.452 324.141 265.452 315.8H262.452C262.452 323.726 260.829 330.532 257.64 336.272L260.263 337.728ZM265.452 315.8V207H262.452V315.8H265.452ZM263.952 208.5H270.552V205.5H263.952V208.5ZM269.052 207V315.6H272.052V207H269.052ZM269.052 315.6C269.052 324.594 267.228 332.408 263.631 339.089L266.272 340.511C270.142 333.325 272.052 325.006 272.052 315.6H269.052ZM263.637 339.078C260.041 345.628 254.98 350.689 248.43 354.285L249.873 356.915C256.923 353.044 262.396 347.572 266.266 340.522L263.637 339.078ZM248.439 354.28C242.021 357.746 234.606 359.5 226.152 359.5V362.5C235.031 362.5 242.949 360.654 249.864 356.92L248.439 354.28ZM274.845 339.2H273.345V339.656L273.599 340.035L274.845 339.2ZM274.845 328.4L276.213 327.784L273.345 328.4H274.845ZM290.445 347.2L289.613 348.448L289.624 348.455L290.445 347.2ZM333.645 349.6L332.962 348.265L332.956 348.268L332.949 348.271L333.645 349.6ZM347.245 337.2L348.517 337.995L347.245 337.2ZM349.045 302.6L347.688 303.239L349.045 302.6ZM338.445 289.6L337.464 290.735L337.473 290.742L337.482 290.75L338.445 289.6ZM317.045 274.6L316.25 275.872L316.26 275.878L317.045 274.6ZM310.645 270.6L311.44 269.328L311.43 269.322L310.645 270.6ZM296.445 261L295.524 262.184L296.445 261ZM287.045 251.2L285.797 252.032L285.811 252.052L285.825 252.072L287.045 251.2ZM342.245 218H343.745V217.477L343.42 217.067L342.245 218ZM342.245 228.2L340.93 228.92L343.745 228.2H342.245ZM295.245 216.4L296.256 217.508V217.508L295.245 216.4ZM294.645 250.6L293.496 251.563L293.51 251.58L293.524 251.597L294.645 250.6ZM316.045 266.4L316.805 265.106L316.798 265.103L316.791 265.099L316.045 266.4ZM344.645 286L345.659 284.894L345.642 284.879L345.625 284.864L344.645 286ZM355.045 300.6L353.653 301.157L353.659 301.172L353.665 301.187L355.045 300.6ZM352.645 340.2L353.922 340.988L352.645 340.2ZM336.645 354.8L337.306 356.147L337.316 356.142L337.327 356.136L336.645 354.8ZM313.645 358.3C297.474 358.3 285.01 351.679 276.092 338.365L273.599 340.035C283.08 354.188 296.483 361.3 313.645 361.3V358.3ZM276.345 339.2V328.4H273.345V339.2H276.345ZM273.477 329.016C277.184 337.253 282.561 343.747 289.613 348.448L291.277 345.952C284.729 341.586 279.706 335.547 276.213 327.784L273.477 329.016ZM289.624 348.455C296.839 353.172 305.401 355.5 315.245 355.5V352.5C305.889 352.5 297.919 350.294 291.266 345.945L289.624 348.455ZM315.245 355.5C322.141 355.5 328.515 353.981 334.341 350.929L332.949 348.271C327.576 351.086 321.683 352.5 315.245 352.5V355.5ZM334.329 350.935C340.297 347.882 345.037 343.564 348.517 337.995L345.973 336.405C342.787 341.503 338.46 345.452 332.962 348.265L334.329 350.935ZM348.517 337.995C352.015 332.399 353.745 325.985 353.745 318.8H350.745C350.745 325.482 349.143 331.334 345.973 336.405L348.517 337.995ZM353.745 318.8C353.745 312.366 352.65 306.738 350.403 301.961L347.688 303.239C349.707 307.529 350.745 312.7 350.745 318.8H353.745ZM350.403 301.961C348.154 297.183 344.463 292.685 339.409 288.45L337.482 290.75C342.294 294.782 345.67 298.95 347.688 303.239L350.403 301.961ZM339.427 288.465C334.405 284.122 327.193 279.073 317.83 273.322L316.26 275.878C325.564 281.593 332.619 286.545 337.464 290.735L339.427 288.465ZM317.84 273.328L311.44 269.328L309.85 271.872L316.25 275.872L317.84 273.328ZM311.43 269.322C305.589 265.737 300.907 262.57 297.366 259.816L295.524 262.184C299.184 265.03 303.968 268.263 309.861 271.878L311.43 269.322ZM297.366 259.816C293.881 257.106 290.849 253.944 288.266 250.328L285.825 252.072C288.575 255.922 291.809 259.294 295.524 262.184L297.366 259.816ZM288.293 250.368C285.005 245.436 283.345 239.731 283.345 233.2H280.345C280.345 240.269 282.152 246.564 285.797 252.032L288.293 250.368ZM283.345 233.2C283.345 224.488 286.146 217.868 291.626 213.135L289.665 210.865C283.411 216.266 280.345 223.779 280.345 233.2H283.345ZM291.626 213.135C297.175 208.343 304.274 205.9 313.045 205.9V202.9C303.683 202.9 295.849 205.524 289.665 210.865L291.626 213.135ZM313.045 205.9C324.886 205.9 334.174 210.248 341.071 218.933L343.42 217.067C335.916 207.618 325.738 202.9 313.045 202.9V205.9ZM340.745 218V228.2H343.745V218H340.745ZM343.561 227.48C340.37 221.652 335.985 217.054 330.417 213.714L328.874 216.286C333.972 219.345 337.987 223.547 340.93 228.92L343.561 227.48ZM330.417 213.714C324.844 210.37 318.709 208.7 312.045 208.7V211.7C318.182 211.7 323.78 213.23 328.874 216.286L330.417 213.714ZM312.045 208.7C305.04 208.7 299.069 210.884 294.235 215.292L296.256 217.508C300.488 213.65 305.717 211.7 312.045 211.7V208.7ZM294.235 215.292C289.347 219.748 286.945 225.706 286.945 233H289.945C289.945 226.428 292.077 221.319 296.256 217.508L294.235 215.292ZM286.945 233C286.945 240.131 289.122 246.344 293.496 251.563L295.795 249.637C291.901 244.989 289.945 239.469 289.945 233H286.945ZM293.524 251.597C297.952 256.578 305.252 261.941 315.299 267.701L316.791 265.099C306.839 259.393 299.872 254.222 295.766 249.603L293.524 251.597ZM315.286 267.694C327.514 274.871 336.962 281.352 343.665 287.136L345.625 284.864C338.729 278.915 329.11 272.329 316.805 265.106L315.286 267.694ZM343.632 287.106C348.288 291.374 351.613 296.059 353.653 301.157L356.438 300.043C354.211 294.474 350.603 289.426 345.659 284.894L343.632 287.106ZM353.665 301.187C355.843 306.312 356.945 312.043 356.945 318.4H359.945C359.945 311.691 358.781 305.554 356.426 300.013L353.665 301.187ZM356.945 318.4C356.945 326.424 355.072 333.411 351.369 339.412L353.922 340.988C357.952 334.456 359.945 326.91 359.945 318.4H356.945ZM351.369 339.412C347.652 345.436 342.528 350.117 335.964 353.464L337.327 356.136C344.362 352.55 349.905 347.497 353.922 340.988L351.369 339.412ZM335.985 353.453C329.415 356.674 321.979 358.3 313.645 358.3V361.3C322.378 361.3 330.275 359.593 337.306 356.147L335.985 353.453ZM362.636 207V205.5H361.136V207H362.636ZM369.236 207H370.736V205.5H369.236V207ZM369.236 294H367.736V295.5H369.236V294ZM472.036 294V295.5H473.536V294H472.036ZM472.036 207V205.5H470.536V207H472.036ZM478.636 207H480.136V205.5H478.636V207ZM478.636 357V358.5H480.136V357H478.636ZM472.036 357H470.536V358.5H472.036V357ZM472.036 299.8H473.536V298.3H472.036V299.8ZM369.236 299.8V298.3H367.736V299.8H369.236ZM369.236 357V358.5H370.736V357H369.236ZM362.636 357H361.136V358.5H362.636V357ZM362.636 208.5H369.236V205.5H362.636V208.5ZM367.736 207V294H370.736V207H367.736ZM369.236 295.5H472.036V292.5H369.236V295.5ZM473.536 294V207H470.536V294H473.536ZM472.036 208.5H478.636V205.5H472.036V208.5ZM477.136 207V357H480.136V207H477.136ZM478.636 355.5H472.036V358.5H478.636V355.5ZM473.536 357V299.8H470.536V357H473.536ZM472.036 298.3H369.236V301.3H472.036V298.3ZM367.736 299.8V357H370.736V299.8H367.736ZM369.236 355.5H362.636V358.5H369.236V355.5ZM364.136 357V207H361.136V357H364.136Z" fill="white"/>
</svg>
